<svg width="94" height="19" viewBox="0 0 94 19" fill="none" xmlns="http://www.w3.org/2000/svg">
<path d="M89.6135 9.32231H1.16529C0.73624 9.32231 0.388428 9.67013 0.388428 10.0992C0.388428 10.5282 0.736241 10.876 1.16529 10.876H89.6681C90.189 10.876 90.3631 11.5727 89.9036 11.8178L89.1097 12.2412C86.9599 13.3878 85.0984 15.0073 83.6654 16.9777L83.4814 17.2307C83.171 17.6575 83.4759 18.2562 84.0036 18.2562C84.1855 18.2562 84.359 18.1795 84.4814 18.0448L85.2877 17.1579C87.2025 15.0516 89.3977 13.2184 91.8115 11.7097L92.4546 11.3078C93.3678 10.7371 93.3967 9.41733 92.5093 8.80725C89.6408 6.83519 87.1386 4.37754 85.1154 1.54497L84.4969 0.679179C84.3666 0.496718 84.1562 0.38843 83.932 0.38843C83.3988 0.38843 83.0646 0.964345 83.3291 1.42721L83.5443 1.80376C85.0544 4.44651 87.1799 6.6859 89.7403 8.33185L89.8783 8.4206C90.2895 8.68492 90.1023 9.32231 89.6135 9.32231Z" fill="#231001" stroke="#231001" stroke-width="0.77686"/>
</svg>
