<svg xmlns="http://www.w3.org/2000/svg" viewBox="0 0 1024 1024" fill="none" preserveAspectRatio="xMidYMid meet" version="1.2" baseProfile="tiny-ps" xml:space="preserve"><title>Aternas logo</title>
<rect width="1024" height="1024" fill="#E7CBB1"/>
<path fill-rule="evenodd" clip-rule="evenodd" d="M507.899 161.823C504.182 166.059 434.998 329.419 387.814 445.371C383.774 455.296 380.067 463.864 379.575 464.41C379.054 464.989 375.139 463.782 370.196 461.519C333.339 444.646 283.916 438.1 247.264 445.237C171.551 459.981 124.229 525.025 138.55 594.669C143.85 620.445 161.714 647.612 184.909 665.168C210.59 684.608 236.229 694.031 274.176 697.975C279.646 698.543 284.353 699.239 284.634 699.522C285.578 700.471 275.22 719.273 269.696 726.642C255.008 746.229 236.952 758.001 216.851 761.098C203.064 763.222 200.574 764.37 200.574 768.607V771.847L278.421 771.981C321.237 772.056 357.127 771.899 358.174 771.635C360.426 771.065 360.815 765.572 358.719 763.959C357.971 763.383 352.874 762.336 347.394 761.632C329.213 759.296 318.157 753.487 313.017 743.567C309.684 737.134 309.041 720.65 311.638 708.221C313.801 697.862 312.431 698.81 327.961 696.924C356.196 693.494 393.064 679.06 422.035 660.094C439.982 648.345 460.639 631.888 483.382 611.22L492.907 602.563L501.891 611.21C522.209 630.768 551.428 654.632 569.965 666.808C607.45 691.43 646.671 704.465 692.7 707.596L704.676 708.411L707.282 716.067C710.999 726.991 711.626 739.974 708.712 745.666C703.556 755.741 694.961 760.171 676.913 762.057C673.02 762.464 668.733 763.491 667.386 764.339C664.716 766.021 664.131 769.567 666.297 770.94C667.952 771.99 837.532 772.299 839.213 771.255C840.88 770.221 840.025 764.582 838.051 763.59C837.153 763.139 832.14 762.214 826.912 761.537C802.51 758.377 784.109 746.338 769.947 724.27C765.251 716.953 759.246 705.626 759.859 705.242C760.048 705.123 764.858 704.125 770.547 703.022C829.065 691.681 873.789 651.373 884.798 600.052C892.52 564.048 884.654 527.116 863.042 497.909C833.379 457.826 781.039 437.094 725.048 443.252C703.277 445.646 685.667 450.693 662.723 461.114C655.339 464.467 649.186 467.095 649.051 466.954C648.915 466.813 644.411 456.855 639.04 444.824C633.67 432.793 623.766 410.891 617.033 396.153C598.857 356.367 590.597 337.788 532.665 206.392C522.056 182.33 512.876 162.029 512.264 161.276C510.772 159.442 509.893 159.551 507.899 161.823ZM504.669 280.765C516.251 307 523.979 324.086 548.948 378.654C552.664 386.774 565.828 415.18 578.201 441.776C590.575 468.373 600.698 490.824 600.698 491.669C600.698 492.513 598.616 494.583 596.071 496.268C579.007 507.571 517.11 557.572 514.073 562.509C513.708 563.103 508.919 559.496 503.432 554.495C469.785 523.828 435.857 497.85 406.625 480.37C403.181 478.311 400.364 476.088 400.364 475.431C400.364 474.773 417.77 430.704 439.044 377.5C460.317 324.296 480.515 273.764 483.929 265.207C487.341 256.65 490.471 250.005 490.883 250.442C491.294 250.878 497.498 264.524 504.669 280.765ZM292.592 458.499C298.479 459.704 307.858 462.439 313.435 464.578C332.603 471.925 368.503 492.207 367.296 495.006C367.005 495.679 360.135 512.963 352.028 533.415C343.921 553.868 326.861 596.687 314.116 628.569L290.942 686.537L287.132 686.217C266.927 684.522 240.468 673.95 222.577 660.424C201.496 644.486 184.925 620.337 178.2 595.758C174.546 582.4 173.995 555.885 177.062 540.923C183.36 510.193 200.9 484.683 226.259 469.372C246.15 457.363 268.861 453.64 292.592 458.499ZM755.304 457.829C792.949 463.985 824.532 488.566 842.856 525.971C851.648 543.921 855.471 560.429 855.471 580.445C855.471 625.084 832.629 663.677 795.868 681.147C786.404 685.644 767.968 691.327 760.27 692.119C753.93 692.772 753.093 692.629 752.431 690.787C752.024 689.653 742.894 669.775 732.143 646.616C691.511 559.085 656.224 482.471 655.899 481.075C655.342 478.683 683.94 466.195 700.321 461.677C719.334 456.434 738.547 455.089 755.304 457.829ZM614.344 519.47C617.764 526.538 625.828 543.396 632.266 556.93C638.703 570.465 646.91 587.691 650.504 595.211C654.098 602.73 662.435 620.202 669.031 634.038C675.626 647.873 684.67 666.72 689.131 675.92C693.59 685.119 696.882 692.868 696.445 693.139C694.95 694.068 674.701 688.296 665.187 684.23C644.108 675.221 620.362 659.629 596.343 639.024C577.795 623.114 524.48 574.477 524.495 573.482C524.521 571.734 567.353 536.376 586.939 521.931C592.241 518.021 598.853 513.008 601.633 510.791C604.412 508.574 607.01 506.729 607.406 506.689C607.803 506.651 610.924 512.403 614.344 519.47ZM397.642 516.535C410.732 527.099 427.68 541.787 442.282 555.223C465.377 576.474 480.933 591.333 480.933 592.142C480.933 593.314 457.14 614.398 442.826 625.908C404.242 656.938 357.213 680.285 322.902 685.444L317.844 686.204L331.183 650.824C338.52 631.366 352.149 595.758 361.47 571.696C370.792 547.634 379.631 524.748 381.111 520.838C386.262 507.239 386.17 507.418 387.59 508.49C388.328 509.048 392.852 512.668 397.642 516.535Z" fill="#231001"/>
</svg>