<svg width="49" height="40" viewBox="0 0 49 40" fill="none" xmlns="http://www.w3.org/2000/svg">
<path fill-rule="evenodd" clip-rule="evenodd" d="M24.2426 0.119148C24.0003 0.39601 19.4905 11.0731 16.4147 18.6517C16.1514 19.3004 15.9098 19.8604 15.8777 19.8961C15.8437 19.9339 15.5885 19.8551 15.2663 19.7072C12.8637 18.6043 9.64208 18.1764 7.25285 18.643C2.3174 19.6066 -0.767284 23.8579 0.166221 28.4098C0.511717 30.0944 1.67617 31.8701 3.18817 33.0175C4.8622 34.2881 6.53354 34.904 9.00716 35.1617C9.36372 35.1989 9.67054 35.2444 9.68885 35.2629C9.75038 35.3249 9.07522 36.5538 8.7151 37.0354C7.75768 38.3156 6.58067 39.0851 5.27037 39.2874C4.37164 39.4263 4.20933 39.5013 4.20933 39.7783V39.99L9.28388 39.9988C12.0749 40.0037 14.4144 39.9934 14.4826 39.9761C14.6294 39.9389 14.6548 39.5799 14.5181 39.4744C14.4694 39.4368 14.1371 39.3684 13.7799 39.3223C12.5948 39.1697 11.8741 38.79 11.539 38.1416C11.3218 37.7212 11.2798 36.6438 11.4491 35.8314C11.5901 35.1544 11.5009 35.2164 12.5131 35.093C14.3537 34.8689 16.757 33.9255 18.6455 32.6859C19.8154 31.918 21.1619 30.8423 22.6444 29.4915L23.2653 28.9257L23.851 29.4908C25.1754 30.7691 27.0801 32.3289 28.2884 33.1247C30.7319 34.734 33.2886 35.5859 36.289 35.7906L37.0697 35.8439L37.2396 36.3443C37.4819 37.0582 37.5227 37.9068 37.3328 38.2789C36.9967 38.9373 36.4364 39.2269 35.2599 39.3501C35.0062 39.3767 34.7267 39.4439 34.6389 39.4993C34.4649 39.6092 34.4268 39.841 34.5679 39.9307C34.6758 39.9994 45.73 40.0195 45.8396 39.9513C45.9483 39.8837 45.8926 39.5152 45.7639 39.4504C45.7053 39.4208 45.3786 39.3604 45.0378 39.3162C43.4471 39.1096 42.2476 38.3228 41.3245 36.8804C41.0184 36.4022 40.6269 35.6619 40.6668 35.6368C40.6792 35.629 40.9927 35.5637 41.3636 35.4916C45.1781 34.7504 48.0935 32.1159 48.8111 28.7615C49.3145 26.4084 48.8017 23.9945 47.3929 22.0855C45.4593 19.4657 42.0475 18.1107 38.3977 18.5132C36.9785 18.6697 35.8306 18.9995 34.3349 19.6806C33.8536 19.8998 33.4525 20.0716 33.4437 20.0624C33.4348 20.0531 33.1412 19.4023 32.7911 18.6159C32.4411 17.8296 31.7955 16.3981 31.3566 15.4348C30.1718 12.8344 29.6333 11.6201 25.857 3.03217C25.1655 1.45949 24.567 0.132587 24.5271 0.0834055C24.4299 -0.0364751 24.3725 -0.0293266 24.2426 0.119148ZM24.032 7.89316C24.787 9.60787 25.2908 10.7245 26.9184 14.2911C27.1606 14.8219 28.0188 16.6784 28.8253 18.4167C29.6319 20.1551 30.2918 21.6225 30.2918 21.6777C30.2918 21.7329 30.156 21.8682 29.9902 21.9783C28.8778 22.717 24.843 25.9851 24.6451 26.3078C24.6212 26.3466 24.3091 26.1109 23.9514 25.784C21.7581 23.7796 19.5465 22.0817 17.6409 20.9392C17.4164 20.8047 17.2328 20.6593 17.2328 20.6164C17.2328 20.5734 18.3675 17.6931 19.7542 14.2157C21.1409 10.7383 22.4576 7.43558 22.6801 6.87628C22.9025 6.31698 23.1065 5.88271 23.1334 5.91123C23.1602 5.93976 23.5646 6.8316 24.032 7.89316ZM10.2076 19.5097C10.5913 19.5885 11.2027 19.7673 11.5663 19.907C12.8158 20.3873 15.156 21.7129 15.0772 21.8958C15.0583 21.9398 14.6105 23.0695 14.082 24.4062C13.5535 25.743 12.4415 28.5416 11.6106 30.6254L10.1001 34.4142L9.85166 34.3933C8.53462 34.2825 6.80984 33.5915 5.64361 32.7074C4.26944 31.6658 3.18923 30.0874 2.75084 28.4809C2.51265 27.6078 2.47674 25.8748 2.67667 24.8969C3.08718 22.8885 4.23055 21.2211 5.88365 20.2204C7.18025 19.4355 8.66067 19.1922 10.2076 19.5097ZM40.3699 19.466C42.8238 19.8683 44.8826 21.4749 46.0771 23.9197C46.6502 25.0928 46.8994 26.1718 46.8994 27.4801C46.8994 30.3976 45.4104 32.92 43.0141 34.0619C42.3972 34.3558 41.1954 34.7273 40.6937 34.779C40.2804 34.8217 40.2258 34.8123 40.1827 34.6919C40.1561 34.6178 39.561 33.3186 38.8601 31.8049C36.2115 26.084 33.9113 21.0765 33.8901 20.9853C33.8538 20.829 35.718 20.0128 36.7858 19.7174C38.0252 19.3747 39.2776 19.2869 40.3699 19.466ZM31.1813 23.4948C31.4042 23.9567 31.9299 25.0585 32.3496 25.9432C32.7692 26.8278 33.3042 27.9537 33.5385 28.4451C33.7727 28.9366 34.3162 30.0786 34.7461 30.9829C35.176 31.8872 35.7656 33.119 36.0564 33.7202C36.3471 34.3215 36.5616 34.828 36.5332 34.8457C36.4357 34.9064 35.1158 34.5292 34.4955 34.2634C33.1215 33.6746 31.5736 32.6555 30.0079 31.3088C28.7988 30.2689 25.3234 27.09 25.3244 27.0249C25.3261 26.9107 28.1181 24.5997 29.3949 23.6556C29.7405 23.4001 30.1715 23.0724 30.3527 22.9275C30.5339 22.7826 30.7032 22.662 30.7291 22.6594C30.7549 22.6569 30.9584 23.0329 31.1813 23.4948ZM17.0554 23.3029C17.9087 23.9934 19.0135 24.9534 19.9653 25.8316C21.4708 27.2205 22.4848 28.1917 22.4848 28.2446C22.4848 28.3212 20.9338 29.6992 20.0008 30.4515C17.4856 32.4796 14.42 34.0055 12.1834 34.3427L11.8537 34.3924L12.7232 32.08C13.2014 30.8082 14.0899 28.4809 14.6975 26.9082C15.3051 25.3355 15.8813 23.8397 15.9778 23.5842C16.3136 22.6954 16.3076 22.707 16.4001 22.7772C16.4482 22.8136 16.7431 23.0502 17.0554 23.3029Z" fill="#231001"/>
</svg>
